<svg width="11" height="7" viewBox="0 0 11 7" fill="none" xmlns="http://www.w3.org/2000/svg">
<path d="M0.500296 2.09018L4.7903 6.33018C4.88326 6.42391 4.99386 6.4983 5.11572 6.54907C5.23758 6.59984 5.36828 6.62598 5.5003 6.62598C5.63231 6.62598 5.76301 6.59984 5.88487 6.54907C6.00673 6.4983 6.11733 6.42391 6.2103 6.33018L10.4503 2.09018C10.544 1.99722 10.6184 1.88661 10.6692 1.76476C10.72 1.6429 10.7461 1.51219 10.7461 1.38018C10.7461 1.24817 10.72 1.11746 10.6692 0.995602C10.6184 0.873743 10.544 0.763142 10.4503 0.670178C10.2629 0.483927 10.0095 0.379386 9.7453 0.379386C9.48111 0.379386 9.22766 0.483927 9.0403 0.670178L5.5003 4.21018L1.9603 0.670178C1.77404 0.485434 1.52264 0.381283 1.2603 0.380178C1.12869 0.379417 0.998226 0.404642 0.876389 0.454407C0.754551 0.504171 0.643735 0.577497 0.550295 0.670178C0.45322 0.759796 0.374866 0.867762 0.319759 0.987838C0.264652 1.10791 0.233886 1.23772 0.229237 1.36975C0.224587 1.50179 0.246148 1.63344 0.292673 1.75709C0.339198 1.88074 0.409764 1.99395 0.500296 2.09018Z" fill="#181818"/>
</svg>
