<svg width="32" height="32" viewBox="0 0 32 32" fill="none" xmlns="http://www.w3.org/2000/svg">
<rect width="32" height="32" rx="2" fill="#F47F8E"/>
<g clip-path="url(#clip0_374_18576)">
<path d="M19.3335 10.6667V9.33333C19.3335 8.97971 19.193 8.64057 18.943 8.39052C18.6929 8.14048 18.3538 8 18.0002 8H14.0002C13.6465 8 13.3074 8.14048 13.0574 8.39052C12.8073 8.64057 12.6668 8.97971 12.6668 9.33333V10.6667H9.3335V12H10.6668V22C10.6668 22.5304 10.8775 23.0391 11.2526 23.4142C11.6277 23.7893 12.1364 24 12.6668 24H19.3335C19.8639 24 20.3726 23.7893 20.7477 23.4142C21.1228 23.0391 21.3335 22.5304 21.3335 22V12H22.6668V10.6667H19.3335ZM15.3335 19.3333H14.0002V15.3333H15.3335V19.3333ZM18.0002 19.3333H16.6668V15.3333H18.0002V19.3333ZM18.0002 10.6667H14.0002V9.33333H18.0002V10.6667Z" fill="#3C2046"/>
</g>
<defs>
<clipPath id="clip0_374_18576">
<rect width="16" height="16" fill="white" transform="translate(8 8)"/>
</clipPath>
</defs>
</svg>
