<svg width="33" height="33" viewBox="0 0 33 33" fill="none" xmlns="http://www.w3.org/2000/svg">
<rect x="0.5" y="0.5" width="32" height="32" rx="2" fill="#F47F8E"/>
<g clip-path="url(#clip0_533_5523)">
<path d="M19.8334 11.1667V9.83333C19.8334 9.47971 19.6929 9.14057 19.4428 8.89052C19.1928 8.64048 18.8537 8.5 18.5 8.5H14.5C14.1464 8.5 13.8073 8.64048 13.5572 8.89052C13.3072 9.14057 13.1667 9.47971 13.1667 9.83333V11.1667H9.83337V12.5H11.1667V22.5C11.1667 23.0304 11.3774 23.5391 11.7525 23.9142C12.1276 24.2893 12.6363 24.5 13.1667 24.5H19.8334C20.3638 24.5 20.8725 24.2893 21.2476 23.9142C21.6227 23.5391 21.8334 23.0304 21.8334 22.5V12.5H23.1667V11.1667H19.8334ZM15.8334 19.8333H14.5V15.8333H15.8334V19.8333ZM18.5 19.8333H17.1667V15.8333H18.5V19.8333ZM18.5 11.1667H14.5V9.83333H18.5V11.1667Z" fill="#3C2046"/>
</g>
<defs>
<clipPath id="clip0_533_5523">
<rect width="16" height="16" fill="white" transform="translate(8.5 8.5)"/>
</clipPath>
</defs>
</svg>
