<svg width="33" height="33" viewBox="0 0 33 33" fill="none" xmlns="http://www.w3.org/2000/svg">
<rect x="0.5" y="0.5" width="32" height="32" rx="2" fill="#63B3AE"/>
<g clip-path="url(#clip0_533_5494)">
<path d="M18.236 12.2913L8.5 22.0266V24.4999H10.9733L20.7087 14.7639L18.236 12.2913Z" fill="#3C2046"/>
<path d="M23.9879 9.01207C23.6599 8.68419 23.2151 8.5 22.7513 8.5C22.2875 8.5 21.8426 8.68419 21.5146 9.01207L19.1813 11.3487L21.6539 13.8214L23.9873 11.4881C24.1501 11.3256 24.2792 11.1327 24.3674 10.9203C24.4555 10.7079 24.5009 10.4802 24.501 10.2502C24.5011 10.0202 24.4558 9.79251 24.3678 9.58005C24.2797 9.3676 24.1507 9.17459 23.9879 9.01207Z" fill="#3C2046"/>
</g>
<defs>
<clipPath id="clip0_533_5494">
<rect width="16" height="16" fill="white" transform="translate(8.5 8.5)"/>
</clipPath>
</defs>
</svg>
