<svg width="24" height="25" viewBox="0 0 24 25" fill="none" xmlns="http://www.w3.org/2000/svg">
<path d="M2 14.9355H11V24.9355H2V14.9355ZM13 24.9355H22V14.9355H13V24.9355ZM24 10.9355V12.9355H13V9.88855C12.674 9.91755 12.342 9.93555 12 9.93555C11.658 9.93555 11.326 9.91755 11 9.88855V12.9355H0V10.9355C0 10.1399 0.31607 9.37684 0.87868 8.81423C1.44129 8.25162 2.20435 7.93555 3 7.93555H6.134C5.4409 7.30362 4.89167 6.53016 4.5235 5.66751C4.15532 4.80487 3.97679 3.87319 4 2.93555H6C6 5.81655 7.971 7.24255 10.152 7.73555C9.49712 6.56735 9.10405 5.27074 9 3.93555C9 3.1399 9.31607 2.37684 9.87868 1.81423C10.4413 1.25162 11.2044 0.935547 12 0.935547C12.7956 0.935547 13.5587 1.25162 14.1213 1.81423C14.6839 2.37684 15 3.1399 15 3.93555C14.896 5.27074 14.5029 6.56735 13.848 7.73555C16.029 7.24255 18 5.81655 18 2.93555H20C20.0232 3.87319 19.8447 4.80487 19.4765 5.66751C19.1083 6.53016 18.5591 7.30362 17.866 7.93555H21C21.7956 7.93555 22.5587 8.25162 23.1213 8.81423C23.6839 9.37684 24 10.1399 24 10.9355ZM11 3.93555C11.1207 4.99837 11.4613 6.02446 12 6.94855C12.5387 6.02446 12.8793 4.99837 13 3.93555C13 3.67033 12.8946 3.41598 12.7071 3.22844C12.5196 3.0409 12.2652 2.93555 12 2.93555C11.7348 2.93555 11.4804 3.0409 11.2929 3.22844C11.1054 3.41598 11 3.67033 11 3.93555Z" fill="black"/>
</svg>
