<svg width="110" height="115" viewBox="0 0 150 145" fill="none" xmlns="http://www.w3.org/2000/svg">
<path d="M49.452 13.481C50.7057 11.9965 51.8819 10.5113 53.154 9.11217C60.4671 1.06529 69.53 -1.81762 79.9306 1.12667C90.3566 4.07802 96.6107 11.3587 98.436 22.0401C99.7864 29.943 97.499 37.0071 92.3301 43.156C78.1858 59.9821 64.0662 76.8294 49.9353 93.6668C49.7801 93.8517 49.6051 94.0196 49.3744 94.2637C47.3529 91.8613 45.3781 89.5196 43.4089 87.1729C33.8747 75.8071 24.3426 64.4398 14.8091 53.074C11.8232 49.5138 8.81542 45.9719 5.85278 42.3926C-6.54456 27.415 1.81629 4.12035 20.9418 0.593975C31.2063 -1.29833 39.7245 2.01567 46.4237 10.011C47.3424 11.1068 48.2575 12.2053 49.1768 13.3004C49.2198 13.3504 49.2911 13.3773 49.452 13.481Z" stroke= "red" stroke-width = "8" fill="transparent"/>
</svg>