<svg width="24" height="25" viewBox="0 0 24 25" fill="none" xmlns="http://www.w3.org/2000/svg">
<g clip-path="url(#clip0_533_1282)">
<path d="M12 14.5C11.2044 14.5 10.4413 14.8161 9.87868 15.3787C9.31607 15.9413 9 16.7044 9 17.5V24.526H15V17.5C15 16.7044 14.6839 15.9413 14.1213 15.3787C13.5587 14.8161 12.7956 14.5 12 14.5Z" fill="#FAFAFA"/>
<path d="M13.338 1.33306C12.9707 1.00249 12.4941 0.81958 12 0.81958C11.5059 0.81958 11.0293 1.00249 10.662 1.33306L0 10.9291V21.3291C0 22.1777 0.337142 22.9917 0.937258 23.5918C1.53737 24.1919 2.35131 24.5291 3.2 24.5291H7V17.5001C7 16.174 7.52678 14.9022 8.46447 13.9645C9.40215 13.0268 10.6739 12.5001 12 12.5001C13.3261 12.5001 14.5979 13.0268 15.5355 13.9645C16.4732 14.9022 17 16.174 17 17.5001V24.5261H20.8C21.6487 24.5261 22.4626 24.1889 23.0627 23.5888C23.6629 22.9887 24 22.1747 24 21.3261V10.9261L13.338 1.33306Z" fill="#FAFAFA"/>
</g>
<defs>
<clipPath id="clip0_533_1282">
<rect width="24" height="24" fill="white" transform="translate(0 0.5)"/>
</clipPath>
</defs>
</svg>
