<svg width="161" height="161" viewBox="0 0 161 161" fill="none" xmlns="http://www.w3.org/2000/svg">
<circle cx="80.5" cy="80.5" r="80" fill="#D9D9D9"/>
<path d="M133.211 76.9594C132.768 76.3217 122.213 61.182 107.648 50.8335C100.096 45.4583 90.5706 42.5 80.8319 42.5C71.0986 42.5 61.5732 45.4583 54.0052 50.8335C39.4398 61.182 28.8958 76.3217 28.4531 76.9594C27.8326 77.857 27.5 78.9239 27.5 80.0168C27.5 81.1098 27.8326 82.1766 28.4531 83.0742C28.8958 83.7119 39.4398 98.8516 54.0052 109.2C61.5732 114.57 71.0986 117.528 80.8319 117.528C90.5706 117.528 100.096 114.57 107.648 109.195C122.213 98.8462 132.768 83.7066 133.211 83.0688C133.833 82.1729 134.167 81.1067 134.167 80.0141C134.167 78.9216 133.833 77.8554 133.211 76.9594ZM80.8319 98.7712C70.5172 98.7712 62.1652 90.3573 62.1652 80.0141C62.1652 69.6495 70.5172 61.2571 80.8319 61.2571C91.1253 61.2571 99.4987 69.6495 99.4987 80.0141C99.4987 90.3573 91.1253 98.7712 80.8319 98.7712ZM91.4986 80.0141C91.4986 85.9199 86.7093 90.7324 80.8319 90.7324C78.7223 90.7324 76.66 90.1038 74.9058 88.9261C73.1517 87.7483 71.7845 86.0744 70.9772 84.1158C70.1698 82.1573 69.9586 80.0022 70.3702 77.9231C70.7818 75.8439 71.7977 73.9341 73.2894 72.4351C74.7812 70.9361 76.6818 69.9153 78.751 69.5018C80.8201 69.0882 82.9648 69.3004 84.9139 70.1117C86.863 70.9229 88.5289 72.2967 89.701 74.0593C90.873 75.822 91.4986 77.8942 91.4986 80.0141Z" fill="#4CA29C"/>
</svg>
