<svg width="161" height="160" viewBox="0 0 161 160" fill="none" xmlns="http://www.w3.org/2000/svg">
    <circle cx="80.5" cy="80" r="80" fill="#FAFAFA" />
    <svg x="12" y="20" width="140" height="140" viewBox="0 0 124 67" fill="none" xmlns="http://www.w3.org/2000/svg">
        <g clip-path="url(#clip0_683_26734)">
            <path d="M92.3719 31.1884C92.3719 35.7706 88.6423 39.4859 84.0448 39.4859H50.1789C45.5795 39.4859 41.854 35.7706 41.854 31.1884V21.7829C41.854 17.1985 45.5815 13.4854 50.1789 13.4854H84.0448C88.6423 13.4854 92.3719 17.1985 92.3719 21.7829V31.1884Z" fill="#CDCCCC"/>
            <path d="M123.5 26.4845C123.5 41.1128 111.602 52.971 96.9237 52.971C82.245 52.971 70.3496 41.1128 70.3496 26.4845C70.3496 11.8562 82.2471 0 96.9237 0C111.6 0 123.5 11.8583 123.5 26.4845Z" fill="#4BA29C"/>
            <path d="M117.398 26.4845C117.398 37.7558 108.232 46.8895 96.9236 46.8895C85.615 46.8895 76.4512 37.7558 76.4512 26.4845C76.4512 15.2131 85.6171 6.08154 96.9236 6.08154C108.23 6.08154 117.398 15.2131 117.398 26.4845Z" fill="#632D64"/>
            <path d="M94.1301 29.0917V37.6899H89.3633V15.281H95.9133C98.9714 15.281 101.232 15.8309 102.695 16.943C104.16 18.053 104.893 19.7315 104.893 21.9927C104.893 23.3129 104.53 24.4847 103.802 25.5123C103.075 26.5379 102.046 27.3432 100.711 27.924C104.096 32.9614 106.298 36.2194 107.325 37.6878H102.034L96.6675 29.0896H94.1301V29.0917ZM94.1301 25.2302H95.6674C97.1758 25.2302 98.2874 24.9748 99.0065 24.4764C99.7255 23.976 100.083 23.1893 100.083 22.1163C100.083 21.0433 99.7193 20.2999 98.9838 19.8468C98.2482 19.3958 97.1138 19.1713 95.5765 19.1713H94.1301V25.2302Z" fill="#BD92B7"/>
            <path d="M64.0248 26.4845C64.0248 41.1128 52.1273 52.971 37.4486 52.971C22.7699 52.971 10.8745 41.1128 10.8745 26.4845C10.8745 11.8562 22.7741 0 37.4486 0C52.1232 0 64.0248 11.8583 64.0248 26.4845Z" fill="#E7E6E6"/>
            <path d="M57.923 26.4845C57.923 37.7558 48.7571 46.8895 37.4485 46.8895C26.1399 46.8895 16.9761 37.7558 16.9761 26.4845C16.9761 15.2131 26.142 6.08154 37.4485 6.08154C48.7551 6.08154 57.923 15.2131 57.923 26.4845Z" fill="#F2F2F2"/>
            <path d="M33.3472 36.273V13.8662H38.114V32.3518H47.2345V36.2751H33.3472V36.273Z" fill="#CDCCCC"/>
            <path d="M77.2883 47.322C77.2883 58.1897 67.7752 67 56.0389 67C44.3026 67 34.7896 58.1918 34.7896 47.322H77.2883Z" fill="#99D5E6"/>
            <path d="M72.3233 52.9175C72.3233 54.6228 70.9368 56.0026 69.2259 56.0026H52.1793C50.4685 56.0026 49.082 54.6207 49.082 52.9175C49.082 51.2123 50.4685 49.8284 52.1793 49.8284H69.2259C70.9368 49.8284 72.3233 51.2123 72.3233 52.9175Z" fill="white"/>
            <path d="M30.5515 27.9014C38.2607 35.5852 37.7854 48.5206 29.4874 56.7913C21.1893 65.0641 8.21115 65.5378 0.501953 57.854L30.5515 27.9014Z" fill="#99D5E6"/>
            <path d="M31.0082 35.3587C32.217 36.5634 32.217 38.5179 31.0082 39.7247L18.9537 51.7395C17.7449 52.9443 15.7841 52.9422 14.5753 51.7395C13.3666 50.5347 13.3645 48.5783 14.5753 47.3735L26.6278 35.3587C27.8365 34.1539 29.7995 34.1539 31.0082 35.3587Z" fill="white"/>
        </g>
        <defs>
            <clipPath id="clip0_683_26734">
                <rect width="123" height="67" fill="white" transform="translate(0.5)"/>
            </clipPath>
        </defs>
    </svg>
</svg>
