<svg width="24" height="24" viewBox="0 0 24 24" fill="none" xmlns="http://www.w3.org/2000/svg">
<circle cx="12" cy="12" r="12" fill="#171717"/>
<path d="M9.08219 5C6.83111 5 5 6.83281 5 9.08447V14.9178C5 17.1689 6.83281 19 9.08447 19H14.9178C17.1689 19 19 17.1672 19 14.9155V9.08219C19 6.83111 17.1672 5 14.9155 5H9.08219ZM16.0833 7.33333C16.4053 7.33333 16.6667 7.59467 16.6667 7.91667C16.6667 8.23867 16.4053 8.5 16.0833 8.5C15.7613 8.5 15.5 8.23867 15.5 7.91667C15.5 7.59467 15.7613 7.33333 16.0833 7.33333ZM12 8.5C13.9302 8.5 15.5 10.0697 15.5 12C15.5 13.9302 13.9302 15.5 12 15.5C10.0697 15.5 8.5 13.9302 8.5 12C8.5 10.0697 10.0697 8.5 12 8.5ZM12 9.66667C11.3812 9.66667 10.7877 9.9125 10.3501 10.3501C9.9125 10.7877 9.66667 11.3812 9.66667 12C9.66667 12.6188 9.9125 13.2123 10.3501 13.6499C10.7877 14.0875 11.3812 14.3333 12 14.3333C12.6188 14.3333 13.2123 14.0875 13.6499 13.6499C14.0875 13.2123 14.3333 12.6188 14.3333 12C14.3333 11.3812 14.0875 10.7877 13.6499 10.3501C13.2123 9.9125 12.6188 9.66667 12 9.66667Z" fill="#EBEBEB"/>
</svg>
