<svg width="24" height="24" viewBox="0 0 24 24" fill="none" xmlns="http://www.w3.org/2000/svg">
<circle cx="12" cy="12" r="12" fill="#171717"/>
<g clip-path="url(#clip0_744_8637)">
<path d="M16.2076 7.80618C15.4662 7.31455 14.9316 6.52758 14.7645 5.61068C14.7286 5.41262 14.7086 5.20859 14.7086 5H12.3429L12.3391 14.6459C12.2994 15.7261 11.4255 16.5931 10.3545 16.5931C10.0214 16.5931 9.708 16.5085 9.43188 16.3606C8.79886 16.0217 8.36569 15.3468 8.36569 14.57C8.36569 13.4544 9.25792 12.5466 10.3541 12.5466C10.5588 12.5466 10.7552 12.581 10.9409 12.64V10.1829C10.7486 10.1562 10.5533 10.1397 10.3541 10.1397C7.95323 10.1397 6 12.1269 6 14.57C6 16.0688 6.73587 17.3952 7.859 18.1972C8.56623 18.7026 9.4267 19 10.3545 19C12.7554 19 14.7086 17.0127 14.7086 14.57V9.67861C15.6364 10.356 16.7733 10.7553 18 10.7553V8.34838C17.3394 8.34838 16.724 8.14857 16.2076 7.80618Z" fill="#EBEBEB"/>
</g>
<defs>
<clipPath id="clip0_744_8637">
<rect width="12" height="14" fill="white" transform="translate(6 5)"/>
</clipPath>
</defs>
</svg>
