<svg width="25" height="25" viewBox="0 0 25 25" fill="none" xmlns="http://www.w3.org/2000/svg">
<circle cx="12.8064" cy="12.5" r="12" fill="#FAFAFA"/>
<g clip-path="url(#clip0_448_1507)">
<path d="M17.014 8.30618C16.2726 7.81455 15.738 7.02758 15.5709 6.11068C15.535 5.91262 15.515 5.70859 15.515 5.5H13.1493L13.1455 15.1459C13.1058 16.2261 12.2319 17.0931 11.1609 17.0931C10.8278 17.0931 10.5144 17.0085 10.2383 16.8606C9.60526 16.5217 9.17209 15.8468 9.17209 15.07C9.17209 13.9544 10.0643 13.0466 11.1605 13.0466C11.3652 13.0466 11.5616 13.081 11.7473 13.14V10.6829C11.555 10.6562 11.3597 10.6397 11.1605 10.6397C8.75963 10.6397 6.8064 12.6269 6.8064 15.07C6.8064 16.5688 7.54227 17.8952 8.6654 18.6972C9.37262 19.2026 10.2331 19.5 11.1609 19.5C13.5618 19.5 15.515 17.5127 15.515 15.07V10.1786C16.4428 10.856 17.5797 11.2553 18.8064 11.2553V8.84838C18.1458 8.84838 17.5304 8.64857 17.014 8.30618Z" fill="#171717"/>
</g>
<defs>
<clipPath id="clip0_448_1507">
<rect width="12" height="14" fill="white" transform="translate(6.8064 5.5)"/>
</clipPath>
</defs>
</svg>
