<svg width="24" height="24" viewBox="0 0 24 24" fill="none" xmlns="http://www.w3.org/2000/svg">
<circle cx="12" cy="12" r="12" fill="#171717"/>
<g clip-path="url(#clip0_744_8654)">
<path fill-rule="evenodd" clip-rule="evenodd" d="M17.1367 6.86683C15.821 5.55683 14.0702 4.8335 12.2056 4.8335C8.36242 4.8335 5.23903 7.94683 5.23568 11.7702C5.23568 12.9935 5.55706 14.1868 6.16634 15.2368L5.17877 18.8335L8.87461 17.8702C9.89231 18.4235 11.0372 18.7135 12.2056 18.7135H12.2089C16.0487 18.7135 19.1754 15.6002 19.1788 11.7768C19.1788 9.92016 18.4523 8.17683 17.1367 6.86683ZM12.2089 17.5402C11.1678 17.5402 10.1467 17.2602 9.25959 16.7368L9.04869 16.6135L6.85596 17.1868L7.4418 15.0602L7.30455 14.8435C6.7254 13.9268 6.41741 12.8635 6.41741 11.7735C6.41741 8.5935 9.01856 6.00683 12.2122 6.00683C13.7589 6.00683 15.2151 6.60683 16.3065 7.69683C17.4012 8.78683 18.0037 10.2368 18.0004 11.7768C17.997 14.9535 15.3992 17.5402 12.2089 17.5402ZM15.3858 13.2235C15.2118 13.1368 14.3548 12.7168 14.1974 12.6602C14.0367 12.6035 13.9229 12.5735 13.8057 12.7468C13.6886 12.9202 13.3572 13.3102 13.2534 13.4268C13.1529 13.5435 13.0492 13.5568 12.8751 13.4702C12.701 13.3835 12.1386 13.2002 11.4758 12.6102C10.9569 12.1502 10.6087 11.5835 10.5083 11.4102C10.4078 11.2368 10.4982 11.1435 10.5853 11.0568C10.6623 10.9802 10.7594 10.8535 10.8464 10.7535C10.9334 10.6535 10.9636 10.5802 11.0205 10.4635C11.0774 10.3468 11.0506 10.2468 11.0071 10.1602C10.9636 10.0735 10.6154 9.22016 10.4715 8.8735C10.3309 8.53683 10.1869 8.58016 10.0798 8.57683C9.97935 8.57016 9.86218 8.57016 9.74501 8.57016C9.62784 8.57016 9.44037 8.6135 9.27968 8.78683C9.11899 8.96016 8.6704 9.38016 8.6704 10.2335C8.6704 11.0868 9.29307 11.9102 9.38011 12.0268C9.46715 12.1435 10.6087 13.8935 12.3562 14.6435C12.7713 14.8235 13.096 14.9302 13.3505 15.0102C13.7689 15.1435 14.1472 15.1235 14.4485 15.0802C14.7833 15.0302 15.4796 14.6602 15.6235 14.2568C15.7675 13.8535 15.7675 13.5035 15.724 13.4335C15.6737 13.3535 15.5599 13.3102 15.3858 13.2235Z" fill="#EBEBEB"/>
</g>
<defs>
<clipPath id="clip0_744_8654">
<rect width="21" height="21" fill="white" transform="translate(2 2)"/>
</clipPath>
</defs>
</svg>
