<svg width="24" height="24" viewBox="0 0 24 24" fill="none" xmlns="http://www.w3.org/2000/svg">
<g clip-path="url(#clip0_158_3582)">
<path d="M24 3H4.242L4.2 2.649C4.11405 1.91942 3.76338 1.24673 3.21449 0.758478C2.6656 0.270223 1.95663 0.000341793 1.222 0L0 0V2H1.222C1.46693 2.00003 1.70334 2.08996 1.88637 2.25272C2.06941 2.41547 2.18634 2.63975 2.215 2.883L3.8 16.351C3.88595 17.0806 4.23662 17.7533 4.78551 18.2415C5.3344 18.7298 6.04337 18.9997 6.778 19H20V17H6.778C6.53291 16.9999 6.29638 16.9099 6.11333 16.7469C5.93027 16.584 5.81343 16.3594 5.785 16.116L5.654 15H21.836L24 3Z" fill="black"/>
<path d="M7 24C8.10457 24 9 23.1046 9 22C9 20.8954 8.10457 20 7 20C5.89543 20 5 20.8954 5 22C5 23.1046 5.89543 24 7 24Z" fill="black"/>
<path d="M17 24C18.1046 24 19 23.1046 19 22C19 20.8954 18.1046 20 17 20C15.8954 20 15 20.8954 15 22C15 23.1046 15.8954 24 17 24Z" fill="black"/>
</g>
<defs>
<clipPath id="clip0_158_3582">
<rect width="24" height="24" fill="white"/>
</clipPath>
</defs>
</svg>
