<svg width="24" height="25" viewBox="0 0 24 25" fill="none" xmlns="http://www.w3.org/2000/svg">
<g clip-path="url(#clip0_533_1293)">
<path d="M12 0.5C5.383 0.5 0 5.883 0 12.5C0 19.117 5.383 24.5 12 24.5C18.617 24.5 24 19.117 24 12.5C24 5.883 18.617 0.5 12 0.5ZM10.644 11.26L13.685 11.767C15.027 11.99 16 13.14 16 14.5C16 16.154 14.654 17.5 13 17.5V19.5H11V17.5C9.346 17.5 8 16.154 8 14.5H10C10 15.052 10.448 15.5 11 15.5H13C13.552 15.5 14 15.052 14 14.5C14 14.122 13.729 13.802 13.356 13.74L10.315 13.233C8.973 13.01 8 11.86 8 10.5C8 8.846 9.346 7.5 11 7.5V5.5H13V7.5C14.654 7.5 16 8.846 16 10.5H14C14 9.949 13.552 9.5 13 9.5H11C10.448 9.5 10 9.949 10 10.5C10 10.878 10.271 11.198 10.644 11.26Z" fill="white"/>
</g>
<defs>
<clipPath id="clip0_533_1293">
<rect width="24" height="24" fill="white" transform="translate(0 0.5)"/>
</clipPath>
</defs>
</svg>
