<svg width="161" height="160" viewBox="0 0 161 160" fill="none" xmlns="http://www.w3.org/2000/svg">
    <circle cx="80.5" cy="80" r="80" fill="#FAFAFA" />
    <svg x="10" y="10" width="160" height="140" viewBox="0 0 62 134" fill="none" xmlns="http://www.w3.org/2000/svg">
        <g clip-path="url(#clip0_683_26714)">
            <path d="M29.6422 10.1971V5.16013C29.6422 2.30907 27.3724 0 24.5748 0C21.7772 0 19.5074 2.30907 19.5074 5.16013V10.1948C14.9877 13.3931 8.27295 29.7604 8.27295 33.7626V50.4009C8.27295 54.8421 11.8074 58.439 16.1665 58.439H32.9809C37.3422 58.439 40.8745 54.8399 40.8745 50.4009V33.7626C40.8745 29.7626 34.1619 13.3975 29.6422 10.1971Z" fill="#E7E6E6"/>
            <path d="M48.6495 112.508C48.6495 116.947 45.1129 120.547 40.7559 120.547H8.39409C4.0327 120.547 0.500488 116.947 0.500488 112.508V71.9463C0.500488 67.5074 4.0349 52.6541 8.39409 52.6541H40.7559C45.1129 52.6541 48.6495 67.5096 48.6495 71.9463V112.508Z" fill="#CDCCCC"/>
            <path d="M38.506 38.0156C38.506 41.3414 35.8579 44.0357 32.594 44.0357H22.5033C19.2372 44.0357 16.5913 41.3414 16.5913 38.0156C16.5913 34.6897 19.2394 31.9932 22.5033 31.9932H32.594C35.8601 31.9932 38.506 34.6897 38.506 38.0156Z" fill="white"/>
            <path d="M27.0319 12.3225C27.0319 13.2116 26.3237 13.9328 25.4505 13.9328C24.5773 13.9328 23.8691 13.2116 23.8691 12.3225V5.49604C23.8691 4.60691 24.5773 3.88574 25.4505 3.88574C26.3259 3.88574 27.0319 4.60691 27.0319 5.49604V12.3225Z" fill="white"/>
            <path d="M43.4855 72.6853H0.586426V98.1187H43.4855V72.6853Z" fill="#F2F2F2"/>
            <path d="M5.3501 85.9484C7.29656 88.0335 14.2686 94.8219 22.3931 94.8219C30.5177 94.8219 37.4919 88.0335 39.434 85.9506C37.4875 83.8655 30.5155 77.075 22.3931 77.075C14.2708 77.075 7.29656 83.8655 5.3501 85.9484Z" fill="white"/>
            <path d="M30.9049 85.9509C30.9049 90.7392 27.0955 94.6205 22.3932 94.6205C17.6909 94.6205 13.8794 90.7392 13.8794 85.9509C13.8794 81.1625 17.6931 77.2834 22.3932 77.2834C27.0933 77.2834 30.9049 81.1625 30.9049 85.9509Z" fill="#4BA29C"/>
            <path d="M26.2709 85.9508C26.2709 88.1367 24.5356 89.9015 22.3912 89.9015C20.2468 89.9015 18.5093 88.1367 18.5093 85.9508C18.5093 83.7649 20.2446 81.9978 22.3912 81.9978C24.5378 81.9978 26.2709 83.7694 26.2709 85.9508Z" fill="#364A5E"/>
            <path d="M20.2401 80.6407C21.7049 80.6407 22.8882 81.8456 22.8882 83.3372C22.8882 84.8288 21.7049 86.0337 20.2401 86.0337C18.7753 86.0337 17.5898 84.8243 17.5898 83.3372C17.5898 83.2633 17.592 83.1871 17.6008 83.1155C17.8516 83.2543 18.1287 83.3372 18.4322 83.3372C19.3647 83.3372 20.1213 82.569 20.1213 81.6172C20.1213 81.2678 20.018 80.943 19.8376 80.6698C19.9696 80.6496 20.1037 80.6384 20.2423 80.6384L20.2401 80.6407Z" fill="white"/>
            <path d="M22.3909 96.6741C11.9966 96.6741 3.76873 86.9653 3.42342 86.551C3.1375 86.2038 3.1375 85.6954 3.42342 85.3505C3.76873 84.9362 11.9966 75.2251 22.3909 75.2251C32.7852 75.2251 41.0109 84.9362 41.3562 85.3505C41.6444 85.6954 41.6444 86.2038 41.3562 86.551C41.0109 86.9631 32.7852 96.6741 22.3909 96.6741ZM5.34789 85.9507C7.29435 88.0358 14.2664 94.8242 22.3909 94.8242C30.5155 94.8242 37.4897 88.0358 39.4318 85.9507C37.4853 83.8679 30.5133 77.0773 22.3909 77.0773C14.2686 77.0773 7.29435 83.8679 5.34789 85.9507Z" fill="#676767"/>
            <path d="M43.4854 114.112C43.4854 116.058 41.937 117.633 40.0279 117.633H6.66544C4.75638 117.633 3.20801 116.056 3.20801 114.112C3.20801 112.166 4.75858 110.591 6.66544 110.591H40.0279C41.9392 110.591 43.4854 112.168 43.4854 114.112Z" fill="#F2F2F2"/>
            <path d="M39.432 65.5634C39.432 67.2364 38.1014 68.5914 36.4584 68.5914C34.8155 68.5914 33.4849 67.2364 33.4849 65.5634V58.2868C33.4849 56.616 34.8155 55.2588 36.4584 55.2588C38.1014 55.2588 39.432 56.616 39.432 58.2868V65.5634Z" fill="white"/>
            <path d="M61.5006 115.85C61.5006 128.874 55.747 133.998 48.6518 133.998C41.5566 133.998 35.8008 128.874 35.8008 115.85C35.8008 102.827 48.6518 80.6653 48.6518 80.6653C48.6518 80.6653 61.5006 102.829 61.5006 115.85Z" fill="#4BA29C"/>
            <path d="M57.2735 121.306C57.2735 124.444 54.775 126.986 51.6958 126.986C48.6167 126.986 46.1182 124.441 46.1182 121.306C46.1182 118.17 48.6167 115.628 51.6958 115.628C54.775 115.628 57.2735 118.17 57.2735 121.306Z" fill="white"/>
        </g>
        <defs>
            <clipPath id="clip0_683_26714">
                <rect width="61" height="134" fill="white" transform="translate(0.500488)"/>
            </clipPath>
        </defs>
    </svg>
</svg>
