<svg width="161" height="160" viewBox="0 0 161 160" fill="none" xmlns="http://www.w3.org/2000/svg">
    <circle cx="80.5" cy="80" r="80" fill="#FAFAFA" />
    <svg x="28" y="47" width="100" height="100" viewBox="0 0 97 82" fill="none" xmlns="http://www.w3.org/2000/svg">
        <g clip-path="url(#clip0_683_26964)">
            <path d="M69.4146 26.7011C69.4146 38.6221 59.9324 48.2819 48.2345 48.2819C36.5365 48.2819 27.0527 38.6204 27.0527 26.7011C27.0527 14.7819 36.5349 5.11865 48.2345 5.11865C59.9341 5.11865 69.4146 14.7802 69.4146 26.7011Z" fill="#4BA29C" />
            <path d="M57.8871 26.701C57.8871 32.134 53.5634 36.5395 48.2313 36.5395C42.8992 36.5395 38.5771 32.134 38.5771 26.701C38.5771 21.268 42.8992 16.8643 48.2313 16.8643C53.5634 16.8643 57.8871 21.268 57.8871 26.701Z" fill="#364A5E" />
            <path d="M42.8804 13.4778C46.5228 13.4778 49.4705 16.4829 49.4705 20.1943C49.4705 23.9056 46.5228 26.9091 42.8804 26.9091C39.2379 26.9091 36.2886 23.9039 36.2886 20.1943C36.2886 20.0104 36.297 19.8266 36.3156 19.6462C36.9277 19.995 37.6292 20.1943 38.383 20.1943C40.7017 20.1943 42.5819 18.2802 42.5819 15.9159C42.5819 15.0465 42.3306 14.2321 41.8804 13.562C42.2025 13.507 42.5364 13.4795 42.8787 13.4795L42.8804 13.4778Z" fill="white" />
            <path d="M48.2343 53.4003C22.3696 53.4003 1.89613 29.2234 1.0378 28.1959C0.319431 27.3351 0.319431 26.0687 1.0378 25.2096C1.89613 24.1787 22.3696 0 48.2343 0C74.0989 0 94.5707 24.1787 95.4307 25.2096C96.1474 26.0687 96.1474 27.3351 95.4307 28.1959C94.5707 29.2251 74.0972 53.4021 48.2343 53.4021V53.4003ZM5.8303 26.701C10.6784 31.8883 28.0289 48.7921 48.2343 48.7921C68.4397 48.7921 85.8002 31.8918 90.6383 26.7028C85.7918 21.5155 68.4397 4.60997 48.2343 4.60997C28.0289 4.60997 10.6768 21.5137 5.8303 26.701Z" fill="#676767" />
            <path d="M96.4999 63.0052C96.4999 76.6357 90.4814 82 83.0583 82C75.6351 82 69.6167 76.6357 69.6167 63.0052C69.6167 49.3746 83.0583 26.1821 83.0583 26.1821C83.0583 26.1821 96.4999 49.3763 96.4999 63.0052Z" fill="#4BA29C" />
            <path d="M92.8695 69.2011C92.8695 72.2801 90.421 74.775 87.3991 74.775C84.3772 74.775 81.9287 72.2801 81.9287 69.2011C81.9287 66.122 84.3772 63.6289 87.3991 63.6289C90.421 63.6289 92.8695 66.1238 92.8695 69.2011Z" fill="white" />
        </g>
        <defs>
            <clipPath id="clip0_683_26964">
                <rect width="96" height="82" fill="white" transform="translate(0.5)" />
            </clipPath>
        </defs>
    </svg>
</svg>